<svg preserveAspectRatio="none" width="100%" height="100%" overflow="visible" style="display: block;" viewBox="0 0 90.1249 260.032" fill="none" xmlns="http://www.w3.org/2000/svg" xmlns:xlink="http://www.w3.org/1999/xlink">
<g id="Vector">
<path d="M45.0904 26.0323L90.0904 0.0521851L90.1163 156.037L90.1249 208.032L45.0904 234.032L0.0559082 260.032V208.032L45.0904 182.032V26.0323Z" fill="var(--fill-0, #1f2937)"/>
<path d="M45.0904 26.0323L90.0904 0.0521851L90.1163 156.037L90.1249 208.032L45.0904 234.032L0.0559082 260.032V208.032L45.0904 182.032V26.0323Z" fill="url(#pattern0_0_24)"/>
<path d="M45.0904 26.0323L90.0904 0.0521851L90.1163 156.037L90.1249 208.032L45.0904 234.032L0.0559082 260.032V208.032L45.0904 182.032V26.0323Z" fill="url(#paint0_linear_0_24)"/>
</g>
<defs>
<linearGradient id="paint0_linear_0_24" x1="45.0624" y1="0" x2="45.0624" y2="260.032" gradientUnits="userSpaceOnUse">
<stop offset="0.313555" stop-color="#1f2937" stop-opacity="0"/>
<stop offset="1" stop-color="#1f2937"/>
</linearGradient>
<pattern id="pattern0_0_24" patternUnits="userSpaceOnUse" patternTransform="matrix(6.48 0 0 3.73 38.5824 126.286)" preserveAspectRatio="none" viewBox="0 0 324 186.5" width="1" height="1">
<use xlink:href="#pattern0_0_24_inner" transform="translate(-324 -186.5)"/>
<use xlink:href="#pattern0_0_24_inner" transform="translate(0 -186.5)"/>
<use xlink:href="#pattern0_0_24_inner" transform="translate(-324 0)"/>
<g id="pattern0_0_24_inner">
<g id="Frame 1" clip-path="url(#clip0_0_24)">
<path id="Vector_2" d="M942.12 -170L-294 543.656" stroke="var(--stroke-0, #374151)" stroke-width="60"/>
</g>
</g>
</pattern><clipPath id="clip0_0_24">
<rect width="648" height="373" fill="white"/>
</clipPath>
</defs>
</svg>
