<svg preserveAspectRatio="none" width="100%" height="100%" overflow="visible" style="display: block;" viewBox="0 0 45.003 181.863" fill="none" xmlns="http://www.w3.org/2000/svg" xmlns:xlink="http://www.w3.org/1999/xlink">
<g id="Vector">
<path d="M45.003 155.883L0.00357056 181.863L0.00119019 77.9413L0 25.9804L44.9994 0L45.0006 51.9609L0.00119019 77.9413L45.003 155.883Z" fill="var(--fill-0, #1f2937)"/>
<path d="M45.003 155.883L0.00357056 181.863L0.00119019 77.9413L0 25.9804L44.9994 0L45.0006 51.9609L0.00119019 77.9413L45.003 155.883Z" fill="url(#pattern0_0_22)"/>
<path d="M45.003 155.883L0.00357056 181.863L0.00119019 77.9413L0 25.9804L44.9994 0L45.0006 51.9609L0.00119019 77.9413L45.003 155.883Z" fill="url(#paint0_linear_0_22)"/>
</g>
<defs>
<linearGradient id="paint0_linear_0_22" x1="45.0013" y1="-51.9608" x2="45.0013" y2="207.843" gradientUnits="userSpaceOnUse">
<stop offset="0.284852" stop-color="#1f2937" stop-opacity="0"/>
<stop offset="1" stop-color="#1f2937"/>
</linearGradient>
<pattern id="pattern0_0_22" patternUnits="userSpaceOnUse" patternTransform="matrix(6.48 0 0 3.73 16.0215 87.2015)" preserveAspectRatio="none" viewBox="0 0 324 186.5" width="1" height="1">
<use xlink:href="#pattern0_0_22_inner" transform="translate(-324 -186.5)"/>
<use xlink:href="#pattern0_0_22_inner" transform="translate(0 -186.5)"/>
<use xlink:href="#pattern0_0_22_inner" transform="translate(-324 0)"/>
<g id="pattern0_0_22_inner">
<g id="Frame 1" clip-path="url(#clip0_0_22)">
<path id="Vector_2" d="M942.12 -170L-294 543.656" stroke="var(--stroke-0, #374151)" stroke-width="60"/>
</g>
</g>
</pattern><clipPath id="clip0_0_22">
<rect width="648" height="373" fill="white"/>
</clipPath>
</defs>
</svg>
