<svg preserveAspectRatio="none" width="100%" height="100%" overflow="visible" style="display: block;" viewBox="0 0 135.001 233.824" fill="none" xmlns="http://www.w3.org/2000/svg" xmlns:xlink="http://www.w3.org/1999/xlink">
<g id="Vector">
<path d="M89.9977 25.9804L134.997 0L135.001 155.883L0.0012207 233.824V181.863L0 129.902L89.9988 77.9413L89.9977 25.9804Z" fill="var(--fill-0, #0B0F19)"/>
<path d="M89.9977 25.9804L134.997 0L135.001 155.883L0.0012207 233.824V181.863L0 129.902L89.9988 77.9413L89.9977 25.9804Z" fill="url(#pattern0_0_28)"/>
<path d="M89.9977 25.9804L134.997 0L135.001 155.883L0.0012207 233.824V181.863L0 129.902L89.9988 77.9413L89.9977 25.9804Z" fill="url(#paint0_linear_0_28)"/>
</g>
<defs>
<linearGradient id="paint0_linear_0_28" x1="67.5003" y1="0" x2="67.5003" y2="233.824" gradientUnits="userSpaceOnUse">
<stop offset="0.348903" stop-color="#0B0F19" stop-opacity="0"/>
<stop offset="0.994774" stop-color="#0B0F19"/>
</linearGradient>
<pattern id="pattern0_0_28" patternUnits="userSpaceOnUse" patternTransform="matrix(6.48 0 0 3.73 61.0203 113.182)" preserveAspectRatio="none" viewBox="0 0 324 186.5" width="1" height="1">
<use xlink:href="#pattern0_0_28_inner" transform="translate(-324 -186.5)"/>
<use xlink:href="#pattern0_0_28_inner" transform="translate(0 -186.5)"/>
<use xlink:href="#pattern0_0_28_inner" transform="translate(-324 0)"/>
<g id="pattern0_0_28_inner">
<g id="Frame 1" clip-path="url(#clip0_0_28)">
<path id="Vector_2" d="M942.12 -170L-294 543.656" stroke="var(--stroke-0, #171C2E)" stroke-width="60"/>
</g>
</g>
</pattern><clipPath id="clip0_0_28">
<rect width="648" height="373" fill="white"/>
</clipPath>
</defs>
</svg>
